<svg width="243" height="119" viewBox="0 0 243 119" fill="none" xmlns="http://www.w3.org/2000/svg">
<path d="M178.5 59.5C178.5 91.5566 152.956 117.5 121.5 117.5C90.0436 117.5 64.5 91.5566 64.5 59.5C64.5 27.4434 90.0436 1.5 121.5 1.5C152.956 1.5 178.5 27.4434 178.5 59.5Z" fill="white" stroke="#A6AE73" stroke-width="3"/>
<path d="M136.376 45.12C136.824 45.0133 137.155 45.0133 137.368 45.12C137.645 45.248 137.688 45.5253 137.496 45.952C137.133 46.8053 136.333 47.5307 135.096 48.128C134.691 48.32 134.296 48.4693 133.912 48.576C133.357 48.704 132.28 48.7787 130.68 48.8H129.784H126.744L125.016 55.616L123.192 62.944C122.829 64.2027 122.413 65.3867 121.944 66.496C121.517 67.5413 121.24 68.192 121.112 68.448C120.707 69.088 120.013 69.6 119.032 69.984C118.883 70.0267 118.744 70.0693 118.616 70.112C118.147 70.2187 117.816 70.2187 117.624 70.112C117.453 70.0267 117.368 69.888 117.368 69.696C117.389 69.632 117.507 69.344 117.72 68.832C118.467 67.168 119.043 65.5573 119.448 64C119.597 63.552 120.227 61.0347 121.336 56.448C122.488 51.8613 123.107 49.472 123.192 49.28C123.213 49.1733 123.288 49.0667 123.416 48.96L123.544 48.8H120.376C118.243 48.8213 117.123 48.8427 117.016 48.864C116.781 48.9493 116.579 49.088 116.408 49.28C116.109 49.7067 115.96 50.1653 115.96 50.656C115.96 50.784 115.917 50.9333 115.832 51.104C115.789 51.2107 115.651 51.4027 115.416 51.68C114.904 52.1707 114.285 52.544 113.56 52.8C113.389 52.864 113.155 52.9067 112.856 52.928C112.579 52.928 112.408 52.9067 112.344 52.864C112.131 52.7573 112.056 52.4373 112.12 51.904C112.333 50.5173 113.251 49.2373 114.872 48.064C115.341 47.7227 115.853 47.4133 116.408 47.136C117.368 46.6453 118.339 46.336 119.32 46.208C119.555 46.1653 122.147 46.144 127.096 46.144H134.456L134.744 45.952C135.213 45.5893 135.757 45.312 136.376 45.12Z" fill="#5E6C24"/>
<line x1="171" y1="89.5" x2="228" y2="89.5" stroke="#A6AE73" stroke-width="3"/>
<path d="M15 91H72" stroke="#A6AE73" stroke-width="3"/>
<path d="M15 28H72" stroke="#A6AE73" stroke-width="3"/>
<path d="M171 28H228" stroke="#A6AE73" stroke-width="3"/>
<path d="M0 59H63" stroke="#5E6C24" stroke-width="3"/>
<path d="M180 59H243" stroke="#5E6C24" stroke-width="3"/>
</svg>
